<svg height='100px' width='100px'  fill="#000000" xmlns="http://www.w3.org/2000/svg" xmlns:xlink="http://www.w3.org/1999/xlink" version="1.1" x="0px" y="0px" viewBox="0 0 100 100" enable-background="new 0 0 100 100" xml:space="preserve"><polyline fill="none" stroke="#000000" stroke-width="2" stroke-miterlimit="10" points="12.5,65 36.5,89 51.5,74 36.5,59 12.5,83   "></polyline><circle cx="42.5" cy="71" r="1.2"></circle><line fill="none" stroke="#000000" stroke-width="2" stroke-miterlimit="10" x1="46" y1="74" x2="51" y2="74"></line><polyline fill="none" stroke="#000000" stroke-width="2" stroke-miterlimit="10" points="30.5,41 54.5,65 69.5,50 54.5,35 30.5,59   "></polyline><circle cx="60.5" cy="47" r="1.2"></circle><line fill="none" stroke="#000000" stroke-width="2" stroke-miterlimit="10" x1="64" y1="50" x2="69" y2="50"></line><polyline fill="none" stroke="#000000" stroke-width="2" stroke-miterlimit="10" points="48.5,17 72.5,41 87.5,26 72.5,11 48.5,35   "></polyline><circle cx="78.5" cy="23" r="1.2"></circle><line fill="none" stroke="#000000" stroke-width="2" stroke-miterlimit="10" x1="82" y1="26" x2="87" y2="26"></line><polyline fill="none" stroke="#000000" stroke-width="2" stroke-miterlimit="10" points="12.5,17 36.5,41 51.5,26 36.5,11 12.5,35   "></polyline><circle cx="42.5" cy="23" r="1.2"></circle><line fill="none" stroke="#000000" stroke-width="2" stroke-miterlimit="10" x1="46" y1="26" x2="51" y2="26"></line><polyline fill="none" stroke="#000000" stroke-width="2" stroke-miterlimit="10" points="48.5,65 72.5,89 87.5,74 72.5,59 48.5,83   "></polyline><circle cx="78.5" cy="71" r="1.2"></circle><line fill="none" stroke="#000000" stroke-width="2" stroke-miterlimit="10" x1="82" y1="74" x2="87" y2="74"></line></svg>