<?xml version="1.0" encoding="UTF-8"?>
<svg width="93px" height="45px" viewBox="0 0 93 45" version="1.1" xmlns="http://www.w3.org/2000/svg" xmlns:xlink="http://www.w3.org/1999/xlink">
    <title>Untitled 3</title>
    <g id="Page-1" stroke="none" stroke-width="1" fill="none" fill-rule="evenodd">
        <g id="bones" fill="#000000" fill-rule="nonzero">
            <path d="M81.4,23.6 C81.3,23.4 81.3,23.3 81.2,23.1 C81.1,23 81,22.9 81.1,22.7 C81.2,22.5 81.4,22.5 81.5,22.6 C82.6,23.1 83.9,23.2 84.7,24.2 C85,24.6 85.3,25 85.6,25.5 C85.7,25.6 85.7,25.8 85.8,25.7 C86,25.6 85.8,25.5 85.8,25.4 C85.2,24.2 84.5,23.1 83.5,22.1 C83.2,21.9 83.1,21.5 83.3,21.2 C83.5,21 83.7,20.7 84.1,20.8 C84.3,20.9 84.4,21.1 84.5,21.2 C85.5,22.5 86.5,23.9 87.3,25.4 C88,26.8 88.7,28.3 89.4,29.8 C90.2,31.5 90.6,33.2 91.5,34.8 C92.2,36 92.3,37.4 92.4,38.7 C92.6,40.3 92.1,41.8 91.9,43.3 C91.8,43.7 91.6,44.1 91.3,44.4 C91,44.7 90.6,44.7 90.3,44.5 C88.9,43.4 87.4,42.7 85.8,42 C84.9,41.6 84.1,40.9 83.3,40.4 C82.3,39.7 81.2,39.1 80.2,38.4 C78.1,37 76.4,35.2 75,33.1 C73.9,31.4 72.9,29.6 72.4,27.6 C72.1,26.4 72,25.1 72.1,23.9 C72.1,23.3 71.9,23.3 71.4,23.4 C70.9,23.5 70.3,23.6 69.8,23.6 C69.6,23.6 69.4,23.8 69.5,23.9 C69.9,24.6 69.3,25.3 69.3,26 C69.1,27.4 68.7,28.7 68.6,30.1 C68.6,31 68.3,31.9 68.5,32.9 C68.6,33.1 68.5,33.3 68.5,33.5 C68.4,33.8 68.3,33.9 68,33.9 C67.7,33.9 67.5,33.8 67.5,33.4 C67.6,32.4 67.5,31.3 67.4,30.3 C67.2,28.6 67.3,26.8 66.9,25.1 C66.9,25 66.9,24.9 66.9,24.9 C66.8,23.9 66.8,23.9 65.8,24 C63.7,24.3 61.5,24.5 59.4,24.8 C57.3,25.1 55.1,25.3 53,25.6 C52.8,25.6 52.6,25.7 52.4,25.7 C52.3,25.7 52.1,25.8 52.2,26 C52.8,26.7 52.3,27.4 52.2,28.1 C52,29.8 51.7,31.6 51.7,33.3 C51.7,34.4 51.4,35.6 51.5,36.8 C51.6,37.7 51.4,38.6 51.8,39.4 C51.9,39.7 51.8,39.9 51.5,40.1 C51.3,40.3 51,40.4 50.7,40.2 C50.4,40.1 50.2,39.9 50.2,39.5 C50.2,38.6 50.2,37.7 50.2,36.8 C50.2,35.3 49.9,33.8 49.7,32.4 C49.6,31.4 49.5,30.5 49.4,29.5 C49.3,28.9 49.2,28.3 49.2,27.7 C49.2,27.3 49.2,26.9 49.6,26.6 C49.1,26.4 48.7,26.6 48.3,26.7 C47,27.1 45.6,27.3 44.2,27.5 C42.9,27.7 41.6,27.9 40.3,28.1 C38.9,28.3 37.4,28.4 36,28.7 C35.9,28.7 35.9,28.7 35.8,28.7 C34.3,28.8 34,29.2 33.9,30.7 C33.7,32.8 33.5,35 33.5,37.1 C33.5,38.1 33.6,39.2 34,40.2 C34.1,40.5 34.2,40.7 34,41 C33.8,41.3 34.1,41.5 34.2,41.8 C34.3,42.1 34.3,42.4 34.1,42.6 C33.9,42.8 33.6,42.7 33.3,42.7 C33,42.6 32.9,42.3 32.9,42 C32.9,41.1 32.5,40.2 32.5,39.3 C32.5,39.2 32.4,39.1 32.5,38.9 C32.6,37 32,35.3 31.9,33.4 C31.8,32.1 31.4,30.9 31.4,29.5 C31.4,29.1 31.2,29.1 31,29.2 C30.5,29.4 30.1,29.5 29.6,29.6 C29.5,29.6 29.4,29.7 29.4,29.8 C29.5,31.3 29.1,32.7 29.1,34.2 C29.1,35.7 28.7,37.2 28.9,38.7 C29,39.2 28.9,39.8 28.9,40.4 C28.9,40.8 29,41.3 29.4,41.5 C29.7,41.7 29.5,42 29.4,42.1 C29.2,42.3 29.1,42.5 29.3,42.8 C29.5,43 29.3,43.3 29.1,43.4 C28.9,43.6 28.6,43.6 28.3,43.5 C28,43.4 28.1,43.2 28.1,43 C27.7,40.6 27.8,38.3 27.5,35.9 C27.3,34.4 27.1,32.9 26.8,31.4 C26.8,31.2 26.8,30.9 27,30.8 C27.3,30.6 27.7,30.6 27.8,30.8 C28.2,31.2 28.2,30.7 28.2,30.6 C28.3,30.3 28.2,30 28.4,29.6 C27.6,29.6 26.9,29.9 26.3,30.1 C26.2,30.1 26.1,30.2 25.9,30.2 C25,30.5 24.9,30.5 25.1,31.4 C25.2,31.9 25.1,32.3 25,32.8 C24.8,33.4 25,34 25,34.5 C25.1,35.9 25,37.3 25.1,38.7 C25.1,40.2 25.2,41.7 25.2,43.2 C25.2,43.7 25.1,44 24.5,44 C24,44 23.9,43.7 23.9,43.3 C23.6,41.3 23.6,39.3 23.3,37.4 C23,35.6 22.9,33.8 22.7,32 C22.7,31.7 22.7,31.4 22.7,31.2 C22.7,30.8 22.4,30.7 22.1,30.7 C21.7,30.7 21.7,31 21.7,31.3 C22,34.1 22.3,36.8 22.8,39.6 C22.9,40.3 23,41 23,41.7 C23.1,42.6 22.1,43.3 21.2,43 C21,42.9 20.8,42.9 20.5,42.9 C19.3,42.9 18.1,42.6 16.8,42.6 C15.3,42.5 13.9,41.9 12.6,41.2 C11.1,40.5 9.6,39.9 8.3,38.9 C6.2,37.3 4,35.9 2,34.1 C1.2,33.4 0.8,32.5 0.2,31.7 C6.0104699e-14,31.5 0.1,31.1 0.2,30.8 C1,29.4 1.9,28.1 3,27 C3.7,26.2 4.5,25.3 5.2,24.5 C5.8,23.9 6.4,23.4 7.1,22.8 C7.7,22.3 8.2,21.8 8.7,21.3 C9.7,20.4 10.7,19.5 11.8,18.8 C12.9,18.1 13.9,17.2 15,16.5 C16.2,15.8 17.3,15.2 18.5,14.6 C18.9,14.4 19.6,14.9 19.6,15.5 C19.5,16.4 19.8,17.3 20.1,18.1 C20.2,18.4 20.2,18.9 20.2,19.3 C20.3,20.6 20.6,21.8 20.8,23 C21,24.3 21.1,25.6 21.3,26.9 C21.3,27.2 21.4,27.5 21.4,27.8 C21.4,28.1 21.2,28.5 21.6,28.5 C22,28.6 22.4,28.4 22.7,28.2 C23.1,28 22.7,27.7 22.7,27.5 C22.5,26.1 22.6,24.7 22.6,23.3 C22.7,21.7 22.7,20.2 22.8,18.6 C22.9,17.3 23.1,16 23.1,14.8 C23.1,14.1 23.3,13.4 23.3,12.7 C23.3,12.2 23.7,12 24.1,12.1 C24.6,12.1 24.4,12.6 24.4,12.8 C24.1,14.1 24.5,15.3 24.5,16.6 C24.5,16.9 24.4,17.3 24.4,17.6 C24.3,19.5 24.5,21.4 24.6,23.2 C24.7,24.3 24.5,25.4 24.7,26.5 C24.8,26.9 25.2,27.3 24.9,27.8 C24.8,27.9 25.1,27.9 25.2,27.9 C25.6,27.8 26,27.7 26.3,27.6 C26.5,27.5 26.6,27.4 26.6,27.2 C26.4,25.3 26.5,23.5 26.9,21.6 C27.1,20.6 27,19.5 27.2,18.5 C27.4,16.7 27.5,14.9 27.6,13.1 C27.6,12.6 28,12.5 28.3,12.6 C28.8,12.6 29,13 28.9,13.4 C28.7,14.8 28.6,16.3 28.3,17.7 C28.2,18 28.2,18.5 28.2,18.8 C28.2,20.2 28.1,21.6 28,23 C27.9,23.8 28,24.6 28,25.4 C28,25.9 28.1,26.4 28.3,26.9 C28.5,27.4 28.4,27.5 29,27.3 C29.6,27.2 30.2,27 30.9,26.9 C30.2,26.6 30.3,26.2 30.5,25.6 C30.8,24.6 31.1,23.5 31.3,22.4 C31.5,21.5 31.7,20.6 31.8,19.7 C31.9,18.8 32,18 32,17.1 C32.1,15.8 32.2,14.5 32.4,13.2 C32.4,12.9 32.5,12.6 32.5,12.3 C32.5,11.9 32.8,11.6 33.2,11.7 C33.5,11.8 34,11.9 33.8,12.5 C33.5,13.6 33.4,14.7 33.3,15.9 C33.3,16.7 33.1,17.5 32.9,18.2 C32.7,19.6 32.6,20.9 32.7,22.3 C32.7,23.4 32.6,24.5 32.6,25.6 C32.7,26.6 32.7,26.7 33.6,26.5 C34.7,26.2 35.9,26 37,25.8 C38.9,25.6 40.8,25.1 42.7,25 C44,24.9 45.3,24.6 46.6,24.4 C47.6,24.3 48.5,24 49.5,24 C50.1,24 50.1,23.6 50,23.3 C49.9,22.8 50,22.4 50,21.9 C49.9,20.6 50.3,19.3 50.1,17.9 C49.9,18.6 49.8,19.2 49.7,19.8 C49.6,20.4 49.6,21.1 49.6,21.7 C49.6,22.1 49.7,22.5 49.1,22.6 C48.8,22.7 49.1,23.2 48.8,23.4 C48.7,23.5 48.7,23.8 48.5,23.8 C48.3,23.8 48.2,23.5 48.2,23.4 C48.2,22.7 47.8,22 48.4,21.3 C48.7,21 48.6,20.5 48.6,20.1 C48.7,18.7 49.1,17.3 49.3,15.9 C49.4,15 49.6,14 49.6,13.1 C49.6,12.1 50,11.2 50.1,10.2 C50.1,10 50.1,9.9 50.1,9.7 C50.1,9.2 50.4,9 50.8,9 C51.2,9 51.5,9.1 51.5,9.6 C51.5,11.5 51.4,13.5 51.3,15.4 C51.2,17.3 51.2,19.1 51,21 C50.9,21.8 51,22.5 51.1,23.2 C51.1,23.5 51.3,23.6 51.6,23.5 C52.4,23.4 53.2,23.1 54,23.1 C54.3,23.1 54.3,22.9 54.3,22.7 C54.5,20.9 54.6,19.1 55,17.3 C55.3,16.1 55.2,14.8 55.4,13.6 C55.7,12.3 55.8,11 55.9,9.6 C55.9,9.3 56,9 56.2,8.8 C56.4,8.6 56.7,8.6 57,8.7 C57.2,8.8 57.3,9 57.3,9.3 C57.4,10.2 57.1,11 57,11.9 C56.9,13.2 56.8,14.6 56.8,15.9 C56.8,18 56.7,20.1 56.5,22.2 C56.5,22.6 56.5,22.9 57,22.8 C58.1,22.6 59.2,22.5 60.3,22.4 C60.5,22.4 60.9,22.3 60.9,21.9 C60.9,20.2 61.5,18.5 61.8,16.9 C62.2,14.7 63,12.6 63.3,10.4 C63.4,10 63.7,9.9 64,9.8 C64.3,9.7 64.5,10 64.7,10.1 C65,10.4 64.8,10.6 64.7,10.8 C64.4,11.5 64.2,12.2 64.2,13 C64.1,14.5 63.9,16 63.8,17.5 C63.7,18.9 63.8,20.3 63.7,21.7 C63.7,22 63.9,22 64.1,22 C64.8,21.8 65.5,21.9 66.2,21.9 C66.5,21.9 66.6,21.8 66.6,21.5 C66.7,20.1 67,18.8 67.4,17.5 C67.6,16.7 67.4,15.9 67.6,15.2 C67.7,14.9 67.7,14.6 68.1,14.5 C68.5,14.3 68.7,14.4 68.8,14.8 C69.1,16.5 69,18.3 69,20 C69,20.4 68.8,20.9 68.9,21.4 C69,21.7 69.1,21.8 69.4,21.8 C70.1,21.8 70.9,21.9 71.6,21.8 C72.8,21.5 74,21.6 75.3,21.6 C75.2,21.3 75.1,21.1 74.9,20.9 C74.6,20.5 74.3,20.5 74.1,20.9 C74,21.1 73.8,21.2 73.6,21.2 C73.3,21.2 73.2,21 73.2,20.7 C73.2,19.9 73.6,19.3 73.8,18.7 C74,18.1 74.4,17.6 74.7,17 C76.1,13.8 78.2,11.2 80.7,8.8 C81.7,7.9 82.7,6.9 83.8,6.2 C84.7,5.6 85.8,5.1 86.7,4.5 C86.8,4.4 86.9,4.4 87,4.3 C86.3,4.4 85.7,4.8 85.1,5.1 C83.7,5.8 82.3,6.6 80.9,7.5 C79.8,8.2 78.8,9.1 77.8,9.9 C75.4,11.8 74.1,14.4 72.9,17.1 C72.5,18 72.1,19 71.9,20 C71.8,20.4 71.8,20.7 71.8,21 C71.8,21.2 71.9,21.6 71.7,21.5 C71.4,21.5 71.1,21.4 71.1,20.9 C71,20 71.2,19.1 71.5,18.3 C72.2,16.3 73,14.3 74.1,12.5 C75.1,10.9 76.4,9.6 77.8,8.5 C78.8,7.7 79.8,6.8 80.9,6.1 C82.7,5 84.5,3.9 86.4,3 C87.6,2.5 88.8,2.1 89.9,1.5 C90.1,1.4 90.3,1.3 90.5,1.1 C90.7,0.8 91,1 91.3,1.1 C91.6,1.2 91.6,1.4 91.6,1.7 C91.4,2.9 91.2,4.2 91,5.4 C90.7,8.1 89.8,10.6 89.1,13.2 C88.7,15.1 87.9,16.9 86.7,18.5 C86.1,19.3 85.4,20 84.8,20.7 C84.5,21.1 83.9,21.1 83.5,21 C83.2,20.9 83.2,20.7 83.4,20.4 C84.1,19.8 84.7,19 85.3,18.3 C86.3,17 87.2,15.7 87.7,14 C87.3,14.2 87.2,14.6 87,14.9 C86.8,15.2 86.6,15.5 86.5,15.9 C85.4,18 83.8,19.7 81.8,20.9 C81.5,21.1 81.4,21.3 81.7,21.6 C81.9,21.8 82,22.1 81.8,22.4 C81.6,22.7 81.4,22.7 81,22.7 C79.7,22.7 78.4,22.8 77.1,23 C76.8,23 76.6,23 76.3,23 C75.2,23 74.1,23.1 73,23.3 C72.7,23.3 72.5,23.6 72.4,23.8 C72.3,24.2 72.2,24.7 72.3,25.1 C72.4,27.1 73,28.9 73.9,30.7 C74.6,32.1 75.5,33.3 76.5,34.5 C77.5,35.7 78.6,36.8 80,37.7 C82.1,39.1 84.1,40.4 86.3,41.7 C87.1,42.2 88,42.4 88.9,42.7 C88.6,42.3 88.4,42 87.9,41.9 C87.1,41.6 86.5,41 85.9,40.4 C84.5,39.1 83.1,38 81.6,36.8 C80.7,36.1 79.9,35.2 79,34.4 C77.7,33.2 76.5,32 75.5,30.5 C74.9,29.6 74.1,28.7 73.9,27.7 C73.7,26.7 73.2,25.7 72.9,24.7 C72.8,24.3 72.8,24.1 73.2,23.9 C73.6,23.8 73.7,24.1 73.8,24.4 C74.3,26 74.6,27.6 75.6,28.9 C76.6,30.4 77.7,32 79,33.2 C79.9,34.1 80.9,34.9 81.9,35.7 C83,36.7 84.3,37.5 85.5,38.5 C86.1,39 86.8,39.6 87.3,40.1 C87.6,40.4 88,40.4 88.3,40.7 C88.4,40.8 88.5,40.9 88.6,40.7 C88.7,40.6 88.6,40.5 88.6,40.4 C88.3,39 88,37.6 87.6,36.2 C87.3,35.2 87.2,34.2 86.8,33.3 C86,31.4 85.3,29.4 84.6,27.5 C84.3,26.6 83.6,25.7 83,24.9 C82.8,24.6 82.5,24.3 82,24.3 C82.3,24 81.9,23.7 81.4,23.6 C81.4,23.5 81.4,23.6 81.4,23.6 Z M20.6,29.9 C20.5,28.6 20.4,27.3 20.3,26.1 C20.2,24.8 20.1,23.5 19.9,22.3 C19.8,21.1 19.5,19.9 19.4,18.7 C19.3,17.8 18.9,17 18.9,16 C18.9,15.6 18.7,15.7 18.4,15.8 C17,16.5 15.8,17.4 14.5,18.2 C13.7,18.7 12.9,19.2 12.2,19.8 C11.1,20.8 10,21.6 9,22.7 C8.4,23.4 7.6,23.8 7,24.5 C6,25.5 5,26.6 4.1,27.7 C3.5,28.4 2.8,29.1 2.4,29.9 C2.2,30.3 1.7,30.9 1.9,31.2 C2.2,32 2.6,32.8 3.3,33.4 C4.7,34.6 6.2,35.7 7.7,36.8 C9,37.8 10.3,38.6 11.7,39.4 C13,40 14.3,40.6 15.7,41 C16.7,41.3 17.6,41.5 18.6,41.5 C19.5,41.5 20.4,41.4 21.2,41.7 C21.4,41.8 21.7,41.7 21.7,41.4 C21.7,41.1 21.8,40.8 21.7,40.5 C21.5,39.1 21.3,37.7 21.1,36.3 C20.8,34.2 20.6,32.1 20.6,29.9 Z M89.3,5.4 C88.2,7.5 87.4,9.6 86.1,11.5 C84.8,13.4 83.5,15.3 81.8,16.9 C80.1,18.5 78.6,20.2 76.4,21.2 C77.5,21.3 78.7,21.1 79.7,20.8 C80.5,20.5 81.3,20.1 82,19.6 C83.4,18.7 84.5,17.6 85.4,16.2 C86.3,14.9 87.1,13.5 87.8,12.1 C88.7,10.4 89.4,8.7 89.6,6.8 C89.6,6.4 89.7,5.9 89.3,5.4 Z M88,4.9 C83.6,9.5 79.9,14.8 76.3,20 C79.3,18.5 81.5,16 83.5,13.5 C85.4,10.9 87.3,8.2 88,4.9 Z M75.5,18.9 C78.4,15 81.3,11.1 84.2,7.3 C80.3,10.3 77.3,14.1 75.5,18.9 Z M51.7,24.7 C51.7,24.7 51.7,24.6 51.7,24.6 C50.2,24.8 48.7,24.9 47.2,25.2 C45.3,25.5 43.4,25.8 41.5,26 C40,26.2 38.5,26.4 37,26.7 C35.9,26.9 34.7,27.1 33.5,27.2 C33.3,27.2 32.9,27.2 33,27.6 C33.1,27.9 33.4,27.8 33.6,27.7 C34.4,27.6 35.1,27.5 35.9,27.4 C36.8,27.3 37.8,27.2 38.7,27.1 C39.8,26.9 41,26.7 42.1,26.5 C44.4,26.2 46.7,25.9 49,25.3 C49.9,25.1 50.8,24.9 51.7,24.7 Z M86.7,27.1 C86.9,28.6 87.6,29.9 88,31.2 C88.5,32.5 89.3,33.7 89.5,35.2 C89.6,36.5 90.1,37.8 90.4,39 C90.6,39.9 90.9,40.7 91.1,41.6 C91.2,41.5 91.2,41.4 91.2,41.4 C91.5,40.1 91.3,38.9 91.1,37.6 C91,37 90.9,36.3 90.5,35.7 C89.7,34.4 89.3,32.8 88.7,31.4 C88.3,30.4 87.8,29.4 87.4,28.4 C87.2,28 86.9,27.5 86.7,27.1 Z M30.6,28 C30.3,27.7 30,27.9 29.8,28 C29.1,28.1 28.4,27.8 27.7,28.1 C25.8,28.7 23.8,28.8 21.9,29.1 C21.8,29.1 21.6,29.1 21.6,29.3 C21.6,29.5 21.8,29.6 22,29.5 C22.5,29.3 23.1,29.4 23.6,29.3 C25.3,29 26.9,28.9 28.6,28.5 C29.4,28.4 30,28 30.6,28 Z M88.2,3.6 C88.6,3.7 88.8,3.8 88.7,4.2 C88.7,4.3 88.7,4.4 88.9,4.4 C89,4.4 89.1,4.3 89.1,4.2 C89.2,3.7 89.5,3.8 89.8,4.1 C90.2,4.4 90.3,4.9 90.6,5.2 C90.7,4.4 90.8,3.6 91,2.8 C91.1,2.3 90.9,2.4 90.6,2.5 C89.8,2.8 89,3.1 88.2,3.6 Z M50.3,26.2 C50.9,27.3 50.3,28.5 51,29.6 C51.1,28.6 51.3,27.8 51.3,27 C51.3,25.8 51.3,25.8 50.3,26.2 Z M68.1,27.1 C68.6,26 68.2,25 68.4,24 C68.5,23.7 68.2,23.6 67.9,23.6 C67.6,23.6 67.6,23.8 67.7,24 C67.9,24.5 67.8,25.1 67.8,25.6 C67.9,26.2 67.9,26.6 68.1,27.1 Z M32.8,31.1 C33.1,30.4 33.2,29.7 33.2,28.9 C33.2,28.7 33,28.6 32.8,28.7 C32.7,28.8 32.4,28.8 32.5,29 C32.7,29.7 32.4,30.4 32.8,31.1 Z M63.2,18.6 C63.1,18.7 63.1,18.8 63,18.9 C62.7,19.8 62.7,20.7 62.6,21.6 C62.6,21.7 62.6,21.9 62.8,21.9 C63,21.9 63,21.7 63,21.5 C63,21 63,20.5 63.1,19.9 C63.3,19.6 63.5,19.1 63.2,18.6 Z M67.9,20.2 C67.6,20.6 67.6,20.9 67.5,21.3 C67.4,21.4 67.4,21.6 67.6,21.7 C67.9,21.7 68.2,21.9 68.4,21.6 C68.5,21.4 68.5,21.3 68.3,21.2 C68.1,20.9 68,20.6 67.9,20.2 Z M63.2,23.1 C62.2,23 61.3,23.2 60.9,23.4 C61.7,23.4 62.4,23.4 63.2,23.1 Z" id="Shape"></path>
            <path d="M81.4,23.5 C81.3,23.9 81.7,24.1 81.8,24.2 C82.6,24.8 82.8,25.8 83.2,26.6 C84.6,29.2 85.4,32.1 86.4,34.9 C86.6,35.6 86.9,36.3 87.5,36.9 C87.7,37.1 87.7,37.4 87.5,37.6 C87.3,37.9 86.9,37.8 86.6,37.7 C86.4,37.6 86.3,37.5 86.2,37.4 C85.1,36.1 83.9,35 82.8,33.8 C81.7,32.6 80.6,31.4 79.8,30 C79.4,29.3 78.8,28.6 78.3,28 C77.7,27.3 77.3,26.5 77,25.6 C76.8,25 76.5,24.5 76.2,23.9 C76.1,23.7 76,23.4 76.2,23.2 C76.4,23 76.6,22.8 76.9,22.9 C77.2,23 77.2,23.2 77.3,23.5 C77.8,25.4 78.7,27 79.9,28.5 C81.2,30.1 82.4,31.8 83.9,33.2 C84.1,33.4 84.3,33.7 84.5,34 C84.6,34.1 84.7,34.2 84.8,34.1 C84.9,34 84.9,33.9 84.9,33.8 C84.4,32.3 83.9,30.7 83.3,29.2 C82.8,28 82.4,26.7 81.7,25.7 C81.1,24.9 80.7,24.1 79.8,23.7 C79.6,23.6 79.1,23.5 79.4,23.1 C79.6,22.8 80,22.7 80.4,22.9 C80.8,23.1 81,23.5 81.4,23.5 C81.4,23.6 81.4,23.5 81.4,23.5 Z" id="Path"></path>
            <path d="M44.6,33.2 C44.8,32.1 45,31 45.2,29.9 C45.3,29.3 45.1,28.7 45.2,28.1 C45.3,27.7 45.5,27.5 45.9,27.5 C46.3,27.5 46.4,27.7 46.4,28.1 C46.5,29.2 46.2,30.3 46,31.4 C45.8,32.9 45.9,34.5 45.8,36 C45.8,37.2 45.8,38.3 45.8,39.5 C45.8,40.3 45.8,41.2 46,42 C46.1,42.4 45.8,42.9 45.4,42.8 C45.1,42.7 44.7,42.7 44.6,42.1 C44.5,41.1 44.3,40.2 44.1,39.2 C44,38.2 43.9,37.2 43.7,36.1 C43.5,34.4 43.2,32.7 42.9,31 C42.8,30.2 42.7,29.4 42.5,28.6 C42.4,28.2 42.6,28.1 42.9,28 C43.3,28 43.7,28 43.7,28.5 C43.7,29.9 44.1,31.2 44.2,32.5 C44.3,32.8 44.4,33 44.6,33.2 Z" id="Path"></path>
            <path d="M37.5,22.1 C37.3,22.4 37.2,22.8 37.2,23.2 C37.2,23.6 37.2,23.9 37.2,24.3 C37.2,24.7 37,25.1 36.7,25.1 C36.3,25.1 36,24.8 36,24.3 C36,23.4 36.2,22.5 36.4,21.6 C36.8,19.9 36.9,18.1 37.3,16.4 C37.5,15.1 37.8,13.7 38,12.4 C38.1,11.9 38,11.3 38,10.8 C38,10.2 38.3,10.1 38.8,10.1 C39.3,10.1 39.5,10.4 39.4,10.8 C39.1,13.1 39.1,15.5 38.9,17.8 C38.8,19.4 38.9,21 38.8,22.6 C38.8,23.1 38.9,23.6 39,24.1 C39.1,24.4 39.1,24.8 38.7,24.9 C38.2,25 37.9,24.7 37.8,24.3 C37.6,23.5 37.6,22.8 37.5,22.1 Z" id="Path"></path>
            <path d="M43.8,20.8 C43.4,21.8 43.3,22.8 43.4,23.7 C43.5,24.1 43.1,24.3 42.9,24.3 C42.6,24.3 42.2,24.2 42.2,23.8 C42.1,23.2 42.2,22.5 42.4,21.9 C43.1,19.4 43.4,16.7 44,14.1 C44.4,12.4 44.6,10.6 44.8,8.9 C44.9,8.3 45.2,8.1 45.7,8.1 C46,8.1 46.4,8.7 46.2,9.2 C45.5,11.2 45.7,13.2 45.3,15.3 C45,17 45.2,18.6 45,20.3 C44.9,21.2 44.9,22 44.9,22.9 C44.9,23.2 44.8,23.5 44.4,23.5 C44.1,23.5 43.7,23.3 43.7,22.9 C43.8,22.2 43.8,21.6 43.8,20.8 Z" id="Path"></path>
            <path d="M37.8,31.6 C38.2,30.9 38.2,30.1 38.3,29.3 C38.4,29 38.3,28.7 38.7,28.5 C38.9,28.4 39.1,28.4 39.2,28.6 C39.4,28.9 39.6,29.2 39.4,29.6 C39.1,30.5 38.9,31.4 38.8,32.3 C38.7,33.6 38.5,34.8 38.5,36.1 C38.5,37.3 38.4,38.5 38.6,39.7 C38.6,40 38.8,40.3 38.8,40.7 C38.8,41 38.9,41.4 38.6,41.6 C38.4,41.8 38.5,42.1 38.6,42.2 C38.8,42.8 38.4,42.9 38,42.9 C37.7,42.9 37.4,42.7 37.5,42.3 C37.5,42 37.5,41.6 37.4,41.3 C37,40.5 37.3,39.8 37.3,39 C37.3,36.7 36.9,34.5 36.6,32.3 C36.4,31.2 36.2,30.2 36.1,29.1 C36,28.6 36.4,28.5 36.7,28.6 C37.1,28.6 37.5,28.6 37.5,29.2 C37.4,30 37.4,30.8 37.8,31.6 Z" id="Path"></path>
            <path d="M56.4,37 C56.2,34.6 56.2,32.1 55.8,29.8 C55.6,28.9 55.7,27.9 55.4,26.9 C55.4,26.9 55.4,26.8 55.4,26.8 C55.9,26.5 56,25.9 56.4,25.6 C56.8,25.3 57.3,25.5 57.8,25.5 C58,25.5 58.2,25.7 58.1,26 C57.7,28.1 57.8,30.2 57.7,32.3 C57.7,33.6 57.4,34.8 57.5,36.1 C57.5,36.2 57.5,36.3 57.5,36.3 C58.1,37 57.8,37.9 57.8,38.7 C57.8,39.1 57.7,39.4 57.2,39.4 C56.8,39.4 56.4,39.3 56.4,38.7 C56.6,38.1 56.3,37.6 56.4,37 Z" id="Path"></path>
            <path d="M63.3,26.5 C63.4,25.9 63.5,25.5 63.5,25 C63.5,24.6 63.8,24.4 64.1,24.4 C64.4,24.4 64.8,24.5 64.8,25 C64.7,25.9 64.4,26.7 64.4,27.6 C64.4,28.1 64.4,28.5 64.3,29 C64.2,31.1 64,33.1 63.9,35.2 C63.9,35.6 64,36 64.1,36.4 C64.2,36.8 64.1,37.2 63.7,37.3 C63.2,37.5 62.7,37.1 62.7,36.5 C62.6,35.2 62.7,33.9 62.6,32.6 C62.4,30.4 62.6,28.2 62.1,26 C62,25.7 62,25.3 62.5,25.2 C63,25.1 63.2,25.3 63.2,25.8 C63.1,26 63.2,26.2 63.3,26.5 Z" id="Path"></path>
            <path d="M12.5,26.7 C11.4,26.7 10.9,26.3 10.5,25.6 C10.3,25.3 10.3,25 10,24.7 C9.8,24.5 9.9,24.2 10.1,24 C10.5,23.6 10.9,23.3 11.3,23 C11.8,22.7 12.2,22.7 12.6,23.1 C13.1,23.6 13.8,23.9 13.9,24.7 C14.1,26.1 13.5,26.8 12.5,26.7 Z" id="Path"></path>
        </g>
    </g>
</svg>