<svg height='100px' width='100px'  fill="#000000" xmlns="http://www.w3.org/2000/svg" xmlns:xlink="http://www.w3.org/1999/xlink" version="1.1" x="0px" y="0px" viewBox="0 0 100 100" enable-background="new 0 0 100 100" xml:space="preserve"><path fill="#000000" d="M193.434,40.257c0.009-0.03,0.017-0.06,0.022-0.09c0.007-0.032,0.014-0.064,0.016-0.096  c0.004-0.031,0.005-0.062,0.005-0.093c0-0.032,0-0.063-0.002-0.095c-0.003-0.032-0.008-0.063-0.014-0.094  c-0.006-0.032-0.012-0.062-0.021-0.093c-0.008-0.029-0.019-0.057-0.029-0.086c-0.013-0.033-0.027-0.065-0.044-0.097  c-0.007-0.013-0.01-0.026-0.018-0.039c-0.008-0.013-0.018-0.023-0.025-0.036c-0.02-0.03-0.04-0.06-0.063-0.088  c-0.019-0.023-0.039-0.046-0.06-0.068c-0.022-0.023-0.046-0.045-0.071-0.066c-0.026-0.022-0.053-0.042-0.081-0.061  c-0.013-0.009-0.023-0.021-0.038-0.029l-20.98-12.811c-0.003-0.002-0.007-0.003-0.011-0.005c-0.004-0.002-0.006-0.005-0.01-0.007  L140.126,7.896c-0.001-0.001-0.002-0.001-0.004-0.002c-0.001,0-0.002-0.001-0.003-0.002c-0.029-0.017-0.06-0.026-0.09-0.04  c-0.029-0.014-0.059-0.029-0.088-0.039c-0.036-0.012-0.072-0.017-0.108-0.024c-0.027-0.006-0.053-0.014-0.08-0.018  c-0.041-0.005-0.081-0.003-0.122-0.003c-0.022,0-0.045-0.003-0.067-0.001c-0.041,0.003-0.081,0.013-0.122,0.021  c-0.021,0.004-0.043,0.005-0.063,0.011c-0.04,0.011-0.077,0.027-0.116,0.043c-0.02,0.008-0.041,0.013-0.061,0.023  c-0.036,0.018-0.069,0.042-0.104,0.064c-0.02,0.013-0.039,0.022-0.058,0.036c-0.031,0.024-0.06,0.053-0.088,0.081  c-0.018,0.017-0.037,0.032-0.054,0.05c-0.025,0.029-0.046,0.063-0.068,0.096c-0.015,0.021-0.032,0.04-0.046,0.063  c-0.001,0.001-0.001,0.002-0.002,0.003c0,0.001-0.002,0.002-0.002,0.004L117.799,45.3c-0.018,0.031-0.027,0.063-0.041,0.095  c-0.013,0.028-0.027,0.055-0.037,0.083c-0.01,0.032-0.015,0.065-0.021,0.098c-0.007,0.03-0.017,0.061-0.021,0.091  c-0.003,0.032-0.001,0.063-0.002,0.095c-0.001,0.031-0.005,0.063-0.002,0.095c0.002,0.03,0.011,0.06,0.015,0.09  c0.006,0.032,0.009,0.064,0.018,0.096c0.008,0.028,0.02,0.054,0.03,0.082c0.012,0.032,0.021,0.064,0.036,0.095  c0.014,0.026,0.031,0.05,0.047,0.076c0.018,0.028,0.033,0.059,0.053,0.085c0.02,0.024,0.043,0.045,0.063,0.068  c0.022,0.024,0.043,0.051,0.068,0.073c0.024,0.021,0.053,0.038,0.079,0.057c0.026,0.019,0.051,0.041,0.079,0.058l4.548,2.625v28.434  c0,0.01,0.003,0.021,0.004,0.031c0,0.035,0.005,0.07,0.01,0.105c0.004,0.029,0.008,0.061,0.016,0.09  c0.007,0.029,0.018,0.059,0.027,0.09c0.011,0.029,0.021,0.061,0.033,0.09c0.014,0.027,0.029,0.055,0.045,0.082  s0.031,0.055,0.05,0.08s0.04,0.049,0.06,0.074c0.021,0.023,0.042,0.047,0.065,0.07c0.022,0.02,0.046,0.037,0.069,0.057  c0.028,0.021,0.057,0.043,0.086,0.062c0.01,0.006,0.018,0.014,0.026,0.018l31.883,18.408c0.002,0,0.002,0,0.004,0.002  c0.013,0.008,0.026,0.01,0.039,0.018c0.051,0.025,0.104,0.047,0.158,0.064c0.021,0.006,0.041,0.014,0.062,0.02  c0.071,0.016,0.144,0.027,0.219,0.027c0.003,0,0.006,0.002,0.009,0.002h0.001c0,0,0,0,0.001,0c0.003,0,0.006-0.002,0.009-0.002  c0.076,0,0.148-0.012,0.219-0.027c0.021-0.006,0.041-0.014,0.062-0.02c0.055-0.018,0.107-0.039,0.158-0.064  c0.013-0.008,0.027-0.01,0.04-0.018c0.001-0.002,0.002-0.002,0.004-0.002l11.478-6.627c0.009-0.006,0.017-0.012,0.025-0.02  c0.03-0.018,0.058-0.039,0.086-0.061c0.023-0.02,0.048-0.037,0.07-0.059s0.043-0.045,0.064-0.07c0.021-0.023,0.041-0.047,0.06-0.072  s0.034-0.053,0.051-0.082c0.015-0.025,0.031-0.053,0.044-0.08c0.013-0.029,0.022-0.061,0.033-0.092  c0.011-0.029,0.021-0.059,0.028-0.09c0.007-0.029,0.011-0.059,0.015-0.09c0.006-0.033,0.01-0.068,0.011-0.104  c0-0.012,0.004-0.021,0.004-0.031v-9.018l7.808,4.508c0.001,0.002,0.003,0.002,0.004,0.002c0.013,0.008,0.026,0.012,0.04,0.018  c0.05,0.025,0.103,0.047,0.157,0.064c0.021,0.006,0.041,0.014,0.062,0.02c0.07,0.016,0.144,0.027,0.219,0.027  c0.004,0,0.006,0.002,0.009,0.002h0.001h0.001c0.003,0,0.006-0.002,0.009-0.002c0.076,0,0.148-0.012,0.219-0.027  c0.021-0.006,0.04-0.014,0.061-0.02c0.056-0.018,0.108-0.039,0.159-0.064c0.013-0.006,0.026-0.01,0.039-0.018  c0.002,0,0.003,0,0.004-0.002l11.123-6.422c0.01-0.004,0.017-0.012,0.026-0.018c0.03-0.02,0.058-0.041,0.086-0.062  c0.023-0.02,0.048-0.037,0.069-0.057c0.023-0.023,0.044-0.047,0.065-0.07c0.021-0.025,0.041-0.049,0.06-0.074s0.034-0.053,0.05-0.08  s0.031-0.055,0.044-0.082c0.014-0.029,0.023-0.061,0.034-0.09c0.011-0.031,0.021-0.061,0.027-0.09  c0.008-0.029,0.012-0.061,0.016-0.09c0.005-0.035,0.009-0.07,0.011-0.105c0-0.01,0.003-0.021,0.003-0.031V43.442l4.548-2.625  c0.064-0.037,0.122-0.082,0.174-0.129c0.013-0.012,0.023-0.026,0.036-0.039c0.044-0.044,0.082-0.092,0.116-0.144  c0.006-0.01,0.015-0.017,0.021-0.027c0.008-0.013,0.012-0.026,0.02-0.04c0.017-0.03,0.031-0.061,0.044-0.093  C193.413,40.316,193.425,40.287,193.434,40.257z M186.968,42.024c-0.01,0.005-0.018,0.013-0.026,0.019  c-0.03,0.019-0.058,0.04-0.086,0.062c-0.023,0.019-0.048,0.037-0.069,0.057c-0.023,0.022-0.044,0.046-0.065,0.07  c-0.021,0.024-0.042,0.047-0.06,0.073c-0.019,0.026-0.034,0.054-0.051,0.081c-0.015,0.027-0.031,0.053-0.044,0.082  c-0.013,0.029-0.023,0.06-0.033,0.09c-0.011,0.03-0.021,0.059-0.028,0.089c-0.007,0.03-0.011,0.06-0.015,0.09  c-0.005,0.035-0.01,0.069-0.011,0.104c0,0.011-0.003,0.021-0.003,0.032v34.252l-9.158,5.287V60.393c0-0.02-0.004-0.037-0.005-0.057  c-0.002-0.035-0.005-0.068-0.012-0.104c-0.005-0.033-0.013-0.064-0.021-0.094c-0.008-0.031-0.017-0.061-0.027-0.09  c-0.014-0.035-0.028-0.066-0.045-0.1c-0.008-0.016-0.013-0.033-0.022-0.049c-0.005-0.01-0.013-0.016-0.018-0.025  c-0.02-0.031-0.041-0.059-0.063-0.088c-0.019-0.023-0.036-0.047-0.057-0.068c-0.021-0.023-0.046-0.043-0.07-0.064  c-0.023-0.021-0.048-0.043-0.072-0.061c-0.026-0.02-0.055-0.033-0.082-0.051c-0.026-0.014-0.053-0.031-0.081-0.043  c-0.029-0.014-0.061-0.023-0.092-0.035c-0.028-0.01-0.059-0.02-0.088-0.027c-0.029-0.006-0.062-0.01-0.092-0.016  c-0.034-0.004-0.067-0.008-0.103-0.01c-0.012,0-0.021-0.002-0.033-0.002c-0.02,0-0.038,0.004-0.057,0.006  c-0.034,0.002-0.068,0.004-0.104,0.01c-0.031,0.004-0.063,0.012-0.095,0.021c-0.029,0.008-0.059,0.016-0.088,0.027  c-0.034,0.012-0.066,0.027-0.099,0.045c-0.017,0.008-0.034,0.012-0.05,0.021l-9.282,5.359c-0.01,0.004-0.017,0.012-0.026,0.018  c-0.029,0.02-0.058,0.041-0.086,0.062c-0.023,0.02-0.047,0.037-0.069,0.057c-0.023,0.023-0.044,0.047-0.065,0.072  c-0.021,0.023-0.042,0.045-0.06,0.072c-0.019,0.025-0.034,0.053-0.05,0.08s-0.031,0.055-0.044,0.082  c-0.014,0.029-0.024,0.061-0.034,0.09c-0.011,0.031-0.021,0.059-0.028,0.09c-0.007,0.029-0.01,0.061-0.015,0.092  c-0.005,0.033-0.01,0.068-0.011,0.104c0,0.012-0.003,0.021-0.003,0.031v23.158L156.56,94.4V61.283c0-0.02-0.006-0.037-0.006-0.057  c-0.002-0.033-0.005-0.07-0.011-0.105c-0.006-0.031-0.013-0.062-0.021-0.092c-0.008-0.031-0.017-0.061-0.027-0.09  c-0.013-0.035-0.028-0.066-0.045-0.1c-0.009-0.016-0.013-0.033-0.021-0.049c-0.006-0.01-0.013-0.016-0.019-0.025  c-0.02-0.029-0.041-0.059-0.063-0.088c-0.018-0.023-0.036-0.047-0.057-0.068c-0.021-0.023-0.046-0.045-0.07-0.064  c-0.024-0.021-0.047-0.043-0.073-0.061c-0.025-0.02-0.054-0.033-0.081-0.051c-0.026-0.014-0.053-0.029-0.081-0.043  c-0.029-0.014-0.06-0.023-0.092-0.035c-0.029-0.01-0.058-0.02-0.087-0.027c-0.031-0.006-0.062-0.01-0.093-0.016  c-0.034-0.004-0.067-0.008-0.103-0.01c-0.011,0-0.021-0.002-0.033-0.002c-0.02,0-0.037,0.004-0.057,0.006  c-0.034,0-0.068,0.004-0.103,0.01c-0.033,0.004-0.064,0.012-0.096,0.021c-0.03,0.008-0.059,0.016-0.088,0.027  c-0.034,0.012-0.066,0.027-0.099,0.045c-0.017,0.008-0.034,0.012-0.05,0.021l-1.914,1.105l18.701-33.014l18.701,11.419  L186.968,42.024z M119.99,45.42l20.012-35.327l30.18,17.425l-20.011,35.327L119.99,45.42z M150.046,65.043c0,0,0.002,0,0.003,0.002  c0.001,0,0.001,0,0.002,0c0.058,0.033,0.12,0.055,0.183,0.076c0.019,0.006,0.035,0.018,0.055,0.021  c0.082,0.021,0.165,0.033,0.248,0.033c0,0,0-0.002,0.001-0.002s0.001,0.002,0.001,0.002c0.085,0,0.171-0.014,0.256-0.035  c0.028-0.008,0.055-0.023,0.083-0.035c0.049-0.018,0.1-0.033,0.146-0.059c0.002-0.002,0.003-0.002,0.005-0.004c0,0,0,0,0.001,0  l3.565-2.059V94.4l-29.918-17.273V50.396L150.046,65.043z M168.037,66.318l7.316-4.225v20.32l-7.316-4.225V66.318z"></path><path fill="#000000" d="M93.035,41.385c1.956-3.513,2.899-7.763,1.369-12.648c-0.012-0.037-0.028-0.073-0.04-0.11c0,0,0,0,0-0.001  c0,0,0,0,0,0c-1.176-3.656-3.614-7.062-7.261-10.125c-3.785-3.179-8.041-5.494-13.797-7.507c-1.513-0.529-3.084-0.993-4.69-1.412  c-0.004-0.002-0.007-0.007-0.012-0.009c-0.063-0.03-0.129-0.045-0.195-0.047C62.671,8.047,56.407,7.267,50.01,7.267  c-0.861,0-1.717,0.018-2.57,0.046c-0.014-0.001-0.027-0.007-0.042-0.007c-0.013,0.001-0.023,0.008-0.037,0.01  c-10.92,0.369-21.125,3.012-28.972,7.543c-1.436,0.829-4.014,2.476-6.521,4.839c-0.095,0.031-0.184,0.082-0.248,0.168  c-0.028,0.038-0.042,0.081-0.058,0.123C7.3,24.12,3.386,30.335,5.841,38.181c0.665,2.123,1.766,4.155,3.263,6.085  c0.021,0.033,0.042,0.063,0.069,0.09c1.106,1.411,2.418,2.769,3.958,4.059c3.773,3.16,8.153,5.547,13.786,7.509  c4.609,1.605,9.689,2.702,14.983,3.271c0.098,0.042,0.2,0.052,0.301,0.029c0.917,0.095,1.839,0.176,2.768,0.238  c0.1,1.058,0.091,2.104-0.064,3.097c-0.001,0.005,0.001,0.009,0,0.014c0,0.004-0.003,0.008-0.003,0.012  c-0.056,0.53,0.118,1.049,0.449,1.521c0.034,0.082,0.087,0.151,0.157,0.206c0.213,0.253,0.46,0.495,0.777,0.704  c0.689,0.456,1.438,0.733,2.43,0.899c0.152,0.025,0.32,0.043,0.487,0.061c0.018,0.002,0.034,0.011,0.052,0.012  c0.004,0,0.009,0,0.013,0c0.004,0,0.008-0.002,0.012-0.002c0.266,0.024,0.543,0.042,0.834,0.042c0.448,0,0.919-0.047,1.391-0.124  c0.009,0.001,0.016,0.005,0.023,0.005c0.007,0,0.015,0,0.021,0c0.047-0.002,0.088-0.019,0.13-0.032  c0.7-0.13,1.397-0.348,2.022-0.706c0.002,0,0.003-0.001,0.004-0.001c0.002-0.002,0.005-0.003,0.008-0.004  c0.002-0.001,0.003-0.003,0.005-0.004c0.587-0.34,1.026-0.768,1.305-1.236c0.009-0.012,0.016-0.023,0.023-0.035  c0.113-0.198,0.206-0.402,0.256-0.613c0.081-0.345,0.061-0.694-0.037-1.037c-0.001-0.002,0-0.005,0-0.007  c-0.119-0.765-0.153-1.535-0.127-2.296c0.018-0.149,0.033-0.298,0.056-0.447c10.042-0.638,19.367-3.213,26.655-7.421  c2.419-1.396,8.072-5.102,11.179-10.669C93.03,41.395,93.032,41.39,93.035,41.385z M92.289,40.659  c-0.917,0.159-2.021,0.356-3.258,0.583c1.363-2.863,1.927-6.228,0.839-10.025c1.385-0.638,2.647-1.213,3.714-1.693  C94.771,33.769,93.975,37.513,92.289,40.659z M63.489,57.478c-0.085-0.061-0.171-0.12-0.256-0.181  c5.622-1.118,10.788-2.964,15.148-5.459c0.545,0.047,1.061,0.094,1.559,0.14C75.147,54.517,69.547,56.376,63.489,57.478z   M10.819,34.395c1.177,0.454,2.425,0.939,3.714,1.445c-0.102,1.459,0.055,3.014,0.57,4.661c0.423,1.352,1.073,2.657,1.923,3.912  c-1.026-0.133-2.011-0.257-2.924-0.37c-1.223-1.601-2.125-3.279-2.672-5.025C10.922,37.394,10.746,35.851,10.819,34.395z   M16.138,23.878c1.034,0.783,2.115,1.606,3.221,2.454c-2.168,2.173-4.161,5.032-4.707,8.48c-1.303-0.511-2.558-0.998-3.739-1.453  C11.431,29.495,13.692,26.293,16.138,23.878z M47.255,12.668c0.074,1.11,0.15,2.245,0.227,3.393  c-5.445,0.226-10.641,1.171-15.287,2.754c-0.659-1.084-1.301-2.134-1.915-3.135C35.435,13.941,41.212,12.91,47.255,12.668z   M29.742,14.804c-0.69-1.122-1.328-2.153-1.9-3.074c5.803-1.965,12.313-3.128,19.124-3.396l0.223,3.336  C40.977,11.921,35.035,12.994,29.742,14.804z M83.3,42.327c-1.071,0.209-2.158,0.426-3.248,0.647  c0.966-2.136,1.348-4.626,0.57-7.425c1.208-0.576,2.456-1.166,3.702-1.751C85.195,37.041,84.584,39.907,83.3,42.327z M15.52,36.229  c1.225,0.483,2.467,0.978,3.705,1.477c-0.081,1.255,0.06,2.591,0.502,4.005c0.373,1.19,0.918,2.276,1.572,3.279  c-0.984-0.138-1.958-0.271-2.912-0.398c-1.065-1.4-1.852-2.865-2.329-4.39C15.622,38.808,15.466,37.482,15.52,36.229z   M20.159,26.946c1.066,0.819,2.143,1.652,3.211,2.484c-1.848,1.867-3.538,4.31-4.025,7.247c-1.25-0.503-2.501-1.001-3.733-1.486  C16.077,31.837,18.034,29.053,20.159,26.946z M78.805,43.229c-1.103,0.228-2.189,0.459-3.241,0.688  c0.773-1.776,1.071-3.834,0.444-6.141c1.124-0.552,2.375-1.156,3.697-1.789C80.418,38.737,79.895,41.17,78.805,43.229z   M20.216,38.106c1.265,0.513,2.503,1.022,3.69,1.52c-0.059,1.05,0.065,2.167,0.435,3.347c0.3,0.959,0.734,1.836,1.251,2.652  c-0.961-0.15-1.947-0.298-2.94-0.442c-0.843-1.128-1.535-2.376-1.971-3.771C20.318,40.254,20.184,39.152,20.216,38.106z   M24.164,30.049c1.098,0.858,2.174,1.707,3.206,2.529c-1.527,1.561-2.916,3.587-3.342,6.014c-1.201-0.501-2.452-1.015-3.724-1.53  C20.709,34.221,22.36,31.852,24.164,30.049z M74.31,44.196c-1.137,0.255-2.209,0.505-3.189,0.748  c0.569-1.407,0.758-3.024,0.283-4.823c0.588-0.31,1.177-0.62,1.756-0.918c0.554-0.285,1.203-0.611,1.917-0.965  C75.631,40.492,75.208,42.497,74.31,44.196z M27.944,47.021c0.962,0.165,1.867,0.329,2.695,0.493  c1.283,1.603,2.986,2.829,4.656,3.747c-0.32,0.03-0.629,0.065-0.939,0.101C32.21,50.387,29.803,48.976,27.944,47.021z M24.91,40.047  c1.338,0.566,2.573,1.104,3.673,1.601c-0.042,0.856,0.045,1.759,0.346,2.72c0.222,0.708,0.532,1.362,0.899,1.975  c-0.899-0.167-1.862-0.334-2.875-0.5c-0.709-0.948-1.29-1.997-1.657-3.169C25.008,41.755,24.899,40.881,24.91,40.047z   M69.857,45.265c-0.562,0.148-1.096,0.292-1.56,0.43c-0.508,0.15-1.035,0.309-1.57,0.475c0.385-1.133,0.438-2.312,0.14-3.488  c1.201-0.731,2.413-1.428,3.624-2.078C70.891,42.361,70.558,43.927,69.857,45.265z M64.804,50.189  c-0.413,0.008-0.808,0.021-1.178,0.039c1.108-0.861,1.962-1.817,2.541-2.829c0.827-0.272,1.643-0.518,2.414-0.746  c0.146-0.043,0.319-0.09,0.478-0.134C67.663,48.375,65.739,49.645,64.804,50.189z M29.883,44.068  c-0.215-0.686-0.313-1.344-0.32-1.973c0.365,0.17,0.716,0.335,1.034,0.491c0.827,0.403,1.703,0.833,2.592,1.295  c-0.034,0.708,0.049,1.422,0.272,2.135c0.136,0.433,0.315,0.839,0.521,1.227c-0.361-0.09-0.718-0.177-1.064-0.26  c-0.508-0.123-1.094-0.248-1.712-0.373C30.64,45.848,30.176,45.006,29.883,44.068z M65.468,46.574  c-1.008,0.342-2.031,0.737-3.027,1.213c0.158-0.678,0.159-1.374-0.005-2.07c0.268-0.216,0.532-0.433,0.818-0.644  c0.882-0.653,1.791-1.26,2.71-1.843C66.208,44.482,65.962,45.604,65.468,46.574z M61.58,50.409c-0.241,0.03-0.479,0.063-0.716,0.101  c0.405-0.411,0.736-0.844,1-1.292c0.856-0.479,1.752-0.885,2.655-1.235C63.503,49.183,62.249,50.016,61.58,50.409z M50.34,56.501  c0-0.007,0-0.013,0-0.02c0.412-0.001,0.818-0.024,1.227-0.034c0,0.006-0.001,0.013-0.001,0.019  C51.157,56.476,50.752,56.5,50.34,56.501z M34.416,45.717c-0.141-0.449-0.205-0.88-0.227-1.298c1.184,0.648,2.372,1.359,3.495,2.18  c-0.016,0.507,0.033,1.019,0.193,1.53c0.042,0.134,0.111,0.25,0.163,0.378c-0.877-0.357-1.771-0.646-2.649-0.893  C34.974,47.043,34.634,46.415,34.416,45.717z M61.142,48.468c-0.894,0.517-1.74,1.126-2.515,1.84  c-0.017-0.149-0.051-0.296-0.089-0.443c0.839-1.228,1.837-2.349,3.021-3.404C61.623,47.203,61.449,47.875,61.142,48.468z   M38.831,47.831c-0.042-0.135-0.068-0.267-0.094-0.398c0.984,0.815,1.9,1.714,2.678,2.74c0.062,0.083,0.124,0.174,0.187,0.26  c-0.002,0.042,0,0.084,0,0.127c-0.636-0.518-1.317-0.956-2.023-1.333C39.262,48.805,38.993,48.349,38.831,47.831z M61.276,45.37  c-1.252,1.067-2.309,2.198-3.21,3.429c-0.264-0.417-0.612-0.812-1.038-1.174c0.744-1.583,1.63-3.039,2.615-4.41  C60.344,43.797,60.933,44.511,61.276,45.37z M45.645,47.319c0.426,1.63,0.82,3.563,1.113,5.539c-0.41-0.07-0.817-0.148-1.21-0.244  c-0.475-1.571-1.057-3.03-1.667-4.285c0.246-0.196,0.519-0.387,0.833-0.568C45.002,47.594,45.321,47.454,45.645,47.319z   M54.182,52.701c-0.213,0.023-0.426,0.068-0.635,0.161c-0.227,0.039-0.458,0.068-0.689,0.101c0.232-2.069,0.552-4.113,0.897-5.824  c0.008-0.04,0.019-0.079,0.026-0.119c0.102,0.032,0.209,0.057,0.309,0.092c0.646,0.226,1.213,0.51,1.705,0.83  C55.196,49.328,54.631,50.963,54.182,52.701z M52.774,46.941c-0.348,1.721-0.669,3.779-0.904,5.866  c-0.495-0.093-1.023-0.154-1.574-0.166c-0.035-2.011-0.088-4.069-0.158-6.164c0.925,0.003,1.826,0.106,2.675,0.289  C52.801,46.825,52.786,46.882,52.774,46.941z M49.297,52.672c-0.508,0.041-1.017,0.125-1.513,0.256  c-0.002,0-0.004-0.002-0.007-0.002c-0.306-2.121-0.727-4.205-1.184-5.938c0.792-0.239,1.646-0.394,2.546-0.459  C49.209,48.617,49.262,50.668,49.297,52.672z M43.132,49.076c0.454,0.967,0.883,2.047,1.26,3.199  c-0.097-0.031-0.202-0.055-0.297-0.088c-0.104-0.036-0.225-0.085-0.337-0.127c-0.343-0.656-0.721-1.282-1.13-1.876  C42.693,49.803,42.86,49.432,43.132,49.076z M56.073,52.207c-0.264,0.091-0.531,0.176-0.807,0.254  c0.389-1.408,0.857-2.727,1.347-3.89c0.373,0.355,0.644,0.741,0.817,1.14C56.925,50.497,56.474,51.324,56.073,52.207z   M56.212,47.025c-0.53-0.332-1.127-0.625-1.792-0.857c-0.136-0.047-0.282-0.083-0.422-0.125c0.39-1.715,0.859-3.371,1.374-4.955  c0.256,0.075,0.52,0.142,0.766,0.228c0.75,0.262,1.755,0.692,2.7,1.308C57.855,43.989,56.97,45.444,56.212,47.025z M53.029,45.79  c-0.93-0.201-1.915-0.314-2.924-0.314c-0.06-1.69-0.13-3.4-0.207-5.12c0.064,0,0.127-0.005,0.191-0.005  c1.494,0,2.953,0.171,4.313,0.481C53.891,42.416,53.421,44.072,53.029,45.79z M49.107,45.532c-0.982,0.069-1.917,0.236-2.79,0.498  c-0.493-1.694-1.084-3.316-1.738-4.874c1.33-0.417,2.792-0.68,4.32-0.77C48.977,42.115,49.047,43.833,49.107,45.532z M45.368,46.345  c-0.405,0.164-0.796,0.343-1.154,0.549c-0.29,0.167-0.549,0.347-0.793,0.531c-0.825-1.521-1.776-2.897-2.837-4.182  c0.524-0.447,1.031-0.766,1.331-0.938c0.533-0.308,1.109-0.58,1.72-0.818C44.289,43.041,44.878,44.658,45.368,46.345z   M42.658,48.104c-0.326,0.348-0.585,0.712-0.763,1.093c-0.937-1.158-2.016-2.167-3.176-3.058c0.153-0.859,0.612-1.6,1.153-2.202  C40.917,45.213,41.849,46.574,42.658,48.104z M52.605,56.418c0.283-0.013,0.567-0.019,0.848-0.036  c-0.001,0.011-0.002,0.021-0.003,0.031c-0.28,0.015-0.566,0.013-0.849,0.024C52.604,56.431,52.604,56.424,52.605,56.418z   M62.083,44.721c-0.432-0.92-1.087-1.681-1.844-2.302c0.906-1.188,1.88-2.324,2.894-3.432c1.086,0.857,2.023,1.932,2.54,3.249  c-1.021,0.64-2.033,1.306-3.015,2.032C62.457,44.417,62.275,44.571,62.083,44.721z M59.435,41.824  c-1.044-0.689-2.145-1.166-2.967-1.453c-0.252-0.088-0.521-0.156-0.782-0.232c0.477-1.399,0.979-2.736,1.478-3.999  c0.437,0.123,0.879,0.239,1.295,0.385c1.069,0.374,2.512,0.983,3.856,1.875C61.307,39.504,60.34,40.637,59.435,41.824z   M54.718,39.876c-1.46-0.34-3.027-0.526-4.627-0.526c-0.079,0-0.157,0.006-0.236,0.007c-0.064-1.382-0.134-2.77-0.206-4.158  c0.144-0.002,0.286-0.012,0.43-0.012c2.118,0,4.188,0.245,6.112,0.694C55.692,37.144,55.193,38.478,54.718,39.876z M48.854,39.386  c-1.649,0.096-3.229,0.387-4.667,0.847c-0.592-1.342-1.224-2.635-1.867-3.888c1.94-0.622,4.084-1.004,6.328-1.118  C48.721,36.616,48.791,38.004,48.854,39.386z M43.241,40.567c-0.647,0.254-1.26,0.544-1.827,0.872  c-0.56,0.323-1.041,0.681-1.481,1.053c-0.973-1.108-2.019-2.167-3.13-3.208c0.761-0.661,1.503-1.132,1.938-1.383  c0.808-0.466,1.691-0.873,2.626-1.224C42.013,37.931,42.647,39.225,43.241,40.567z M39.213,43.177  c-0.668,0.724-1.137,1.505-1.368,2.322c-1.169-0.819-2.386-1.54-3.591-2.184c0.233-1.327,0.978-2.454,1.825-3.342  C37.208,41.028,38.252,42.08,39.213,43.177z M38.898,50.003c0.346,0.429,0.748,0.799,1.17,1.139  c-1.088-0.498-2.276-1.172-3.304-2.056C37.496,49.341,38.208,49.649,38.898,50.003z M53.333,57.416  c-0.001,0.02-0.005,0.04-0.007,0.06c-0.268,0.012-0.534,0.025-0.804,0.034c0.001-0.024,0.001-0.047,0.001-0.07  C52.793,57.429,53.065,57.43,53.333,57.416z M66.543,41.707c-0.591-1.403-1.592-2.543-2.731-3.455  c0.433-0.462,0.87-0.923,1.312-1.382c0.478-0.497,1.034-1.057,1.634-1.65c1.48,1.146,2.764,2.599,3.443,4.401  C68.981,40.273,67.758,40.974,66.543,41.707z M64.402,36.177c-0.473,0.492-0.94,0.985-1.404,1.481c-1.469-1-3.045-1.67-4.21-2.078  c-0.402-0.141-0.831-0.252-1.252-0.372c0.091-0.225,0.183-0.455,0.272-0.674c0.356-0.873,0.779-1.869,1.241-2.939  c0.606,0.167,1.216,0.331,1.792,0.532c1.411,0.493,3.324,1.304,5.093,2.5C65.382,35.177,64.857,35.704,64.402,36.177z   M56.883,34.155c-0.104,0.255-0.211,0.521-0.316,0.783c-2.039-0.49-4.241-0.751-6.488-0.751c-0.162,0-0.321,0.011-0.482,0.014  c-0.067-1.26-0.136-2.519-0.208-3.775c0.227-0.004,0.451-0.019,0.679-0.019c2.777,0,5.493,0.322,8.008,0.924  C57.632,32.356,57.228,33.312,56.883,34.155z M48.596,34.229c-2.39,0.122-4.675,0.541-6.74,1.22  c-0.176-0.335-0.352-0.671-0.528-1.001c-0.403-0.754-0.868-1.596-1.377-2.502c2.578-0.842,5.44-1.353,8.437-1.492  C48.46,31.709,48.529,32.969,48.596,34.229z M40.446,34.919c0.152,0.284,0.303,0.574,0.455,0.862  c-0.945,0.361-1.838,0.778-2.66,1.252c-0.827,0.478-1.553,1.001-2.187,1.557c-0.559-0.512-1.126-1.024-1.71-1.542  c-0.435-0.385-0.938-0.816-1.471-1.267c1.02-0.903,2.028-1.547,2.61-1.883c1.076-0.621,2.256-1.157,3.507-1.62  C39.53,33.236,40.023,34.129,40.446,34.919z M33.681,37.797c0.569,0.504,1.117,0.997,1.653,1.486  c-1.039,1.097-1.72,2.299-2.003,3.547c-0.786-0.402-1.56-0.786-2.294-1.144c-0.419-0.204-0.89-0.425-1.387-0.653  c0.289-1.829,1.331-3.365,2.496-4.559C32.703,36.947,33.229,37.397,33.681,37.797z M32.683,47.954  c0.693,0.167,1.405,0.345,2.12,0.538c0.854,1.073,1.944,1.931,3.058,2.609c-0.202,0.006-0.404,0.018-0.607,0.026  c-1.645-0.748-3.476-1.811-4.948-3.258C32.428,47.897,32.566,47.926,32.683,47.954z M50.345,57.501  c0.354-0.001,0.702-0.023,1.053-0.03c-0.003,0.021-0.006,0.043-0.009,0.064c-0.348,0.005-0.695,0.014-1.044,0.015  C50.345,57.533,50.346,57.518,50.345,57.501z M61.892,51.38c0.215-0.026,0.436-0.051,0.662-0.073  c-0.704,0.307-1.435,0.588-2.193,0.838C60.891,51.907,61.405,51.655,61.892,51.38z M71.093,39.154  c-0.746-1.901-2.085-3.431-3.618-4.64c0.899-0.879,1.891-1.83,2.952-2.832c1.882,1.44,3.519,3.279,4.36,5.582  c-0.782,0.387-1.487,0.741-2.085,1.048C72.172,38.585,71.631,38.872,71.093,39.154z M66.657,33.913  c-1.903-1.319-3.97-2.2-5.485-2.73c-0.556-0.194-1.131-0.367-1.713-0.531c0.47-1.076,0.976-2.218,1.506-3.401  c0.779,0.212,1.547,0.44,2.287,0.699c1.758,0.614,4.151,1.628,6.351,3.135C68.555,32.075,67.559,33.03,66.657,33.913z   M58.482,30.391c-2.639-0.646-5.499-0.985-8.416-0.985c-0.248,0-0.491,0.016-0.738,0.021c-0.07-1.192-0.141-2.378-0.214-3.56  c0.314-0.006,0.625-0.026,0.94-0.026c3.443,0,6.816,0.396,9.929,1.152C59.454,28.178,58.951,29.315,58.482,30.391z M48.329,29.456  c-3.156,0.148-6.169,0.699-8.88,1.606c-0.592-1.041-1.229-2.144-1.902-3.294c3.222-1.066,6.81-1.707,10.568-1.872  C48.188,27.077,48.259,28.263,48.329,29.456z M38.489,31.396c-1.248,0.47-2.426,1.013-3.506,1.636  c-0.643,0.372-1.759,1.088-2.882,2.1c-0.968-0.807-2.054-1.69-3.21-2.618c1.284-1.151,2.562-1.97,3.295-2.393  c1.347-0.778,2.829-1.445,4.399-2.02C37.257,29.251,37.896,30.354,38.489,31.396z M31.377,35.832  c-1.21,1.251-2.296,2.857-2.67,4.775c-1.119-0.501-2.376-1.044-3.718-1.61c0.344-2.336,1.688-4.286,3.172-5.786  C29.32,34.14,30.406,35.023,31.377,35.832z M37.05,52.134c0.727,0.323,1.412,0.587,2.01,0.796c0.746,0.26,1.521,0.488,2.314,0.692  c-1.527-0.321-3.002-0.723-4.398-1.209c-0.207-0.072-0.425-0.151-0.649-0.234C36.565,52.161,36.806,52.146,37.05,52.134z   M46.763,56.366c0.129,0.008,0.258,0.015,0.388,0.022c0,0.01,0.001,0.02,0.002,0.029c-0.126-0.007-0.253-0.016-0.379-0.022  C46.77,56.386,46.767,56.376,46.763,56.366z M48.155,56.445c0.08,0.003,0.161,0.002,0.242,0.005  c0.001,0.006,0.002,0.012,0.003,0.019c-0.081-0.003-0.163-0.002-0.244-0.005C48.156,56.457,48.156,56.451,48.155,56.445z   M50.341,58.55c0.307-0.001,0.611-0.009,0.917-0.014c-0.004,0.033-0.007,0.067-0.01,0.101c-0.303,0.004-0.604,0.012-0.907,0.013  C50.341,58.616,50.341,58.583,50.341,58.55z M65.063,51.186c0.389-0.006,0.792-0.008,1.211-0.006  c-2.237,1.071-4.754,1.888-7.437,2.451C61.115,53.043,63.222,52.224,65.063,51.186z M66.652,50.182  c1.25-0.893,2.82-2.27,3.874-4.058c0.922-0.237,1.944-0.484,3.048-0.737c-1.728,2.454-4.256,4.124-5.46,4.825  C67.615,50.198,67.125,50.187,66.652,50.182z M75.688,36.82c-0.906-2.403-2.594-4.324-4.526-5.83  c0.947-0.89,1.933-1.807,2.938-2.735c2.291,1.736,4.291,3.965,5.296,6.771C78.075,35.66,76.819,36.267,75.688,36.82z M70.345,30.385  c-2.339-1.639-4.895-2.727-6.763-3.379c-0.714-0.25-1.452-0.47-2.202-0.678c0.486-1.08,0.986-2.182,1.493-3.291  c0.957,0.258,1.898,0.537,2.805,0.854c2.102,0.735,4.972,1.952,7.599,3.766C72.281,28.574,71.297,29.49,70.345,30.385z   M60.402,26.062c-3.239-0.802-6.759-1.221-10.347-1.221c-0.336,0-0.667,0.021-1.002,0.028c-0.072-1.156-0.145-2.306-0.218-3.443  c0.403-0.009,0.801-0.034,1.207-0.034c4.111,0,8.139,0.476,11.85,1.384C61.387,23.885,60.888,24.984,60.402,26.062z M48.054,24.898  c-3.921,0.174-7.665,0.857-11.022,1.991c-0.614-1.044-1.247-2.111-1.89-3.186c3.865-1.289,8.177-2.059,12.694-2.249  C47.909,22.592,47.981,23.742,48.054,24.898z M36.068,27.224c-1.561,0.581-3.036,1.253-4.382,2.031  c-0.797,0.46-2.196,1.35-3.59,2.623c-1.029-0.82-2.104-1.668-3.2-2.525c1.545-1.397,3.092-2.379,3.974-2.888  c1.623-0.937,3.412-1.738,5.307-2.427C34.819,25.112,35.453,26.179,36.068,27.224z M26.398,46.765  c1.679,2.104,3.956,3.68,6.138,4.823c-0.371,0.051-0.724,0.104-1.088,0.154c-2.638-1.199-5.606-2.958-7.845-5.41  C24.557,46.474,25.49,46.619,26.398,46.765z M34.185,52.383c0.89,0.396,1.73,0.72,2.463,0.975c2.231,0.777,4.653,1.346,7.177,1.707  c0.005,0.011,0.011,0.021,0.016,0.031c-3.279-0.401-6.421-1.109-9.291-2.108c-0.407-0.142-0.85-0.308-1.308-0.486  C33.517,52.464,33.832,52.424,34.185,52.383z M47.103,57.474c-0.005-0.02-0.011-0.039-0.016-0.059  c0.043,0.003,0.086,0.006,0.129,0.008c0.001,0.02,0,0.038,0.001,0.058C47.179,57.479,47.141,57.476,47.103,57.474z M48.216,57.465  c0.1,0.003,0.201,0.003,0.301,0.006c0.001,0.016,0.003,0.031,0.005,0.047c-0.102-0.003-0.204-0.003-0.305-0.006  C48.217,57.495,48.217,57.48,48.216,57.465z M56.497,55.059c0.396-0.057,0.799-0.104,1.189-0.173c0.017,0.01,0.033,0.021,0.05,0.03  c-0.418,0.062-0.832,0.129-1.256,0.182C56.486,55.085,56.491,55.071,56.497,55.059z M59.13,54.591  c3.407-0.726,6.547-1.856,9.224-3.372c0.457,0.014,0.922,0.03,1.394,0.05c-3.099,1.551-6.649,2.704-10.482,3.405  C59.22,54.646,59.176,54.618,59.13,54.591z M69.884,50.274c1.57-1.074,3.713-2.841,5.095-5.204c1.009-0.224,2.058-0.449,3.129-0.674  c-2.03,3.023-5.131,5.081-6.621,5.954C70.947,50.322,70.413,50.297,69.884,50.274z M80.303,34.595  c-1.07-2.91-3.117-5.222-5.458-7.025c0.974-0.895,1.956-1.793,2.931-2.677c0.314,0.242,0.626,0.488,0.932,0.744  c2.619,2.201,4.396,4.622,5.313,7.2C82.771,33.423,81.518,34.016,80.303,34.595z M74.029,26.963  c-2.77-1.951-5.807-3.242-8.021-4.017c-0.878-0.307-1.788-0.578-2.713-0.831c0.5-1.091,1.002-2.179,1.496-3.246  c1.133,0.304,2.245,0.633,3.316,1.007c3.566,1.247,6.374,2.647,8.848,4.413C75.994,25.162,75.014,26.058,74.029,26.963z   M62.317,21.848c-3.841-0.957-8.017-1.456-12.274-1.456c-0.427,0-0.847,0.026-1.271,0.036c-0.075-1.146-0.149-2.278-0.223-3.398  c0.495-0.012,0.985-0.042,1.484-0.042c4.781,0,9.466,0.556,13.779,1.618C63.317,19.672,62.816,20.76,62.317,21.848z M47.771,20.457  c-4.682,0.199-9.151,1.013-13.153,2.371c-0.632-1.054-1.267-2.106-1.893-3.14c4.508-1.512,9.545-2.413,14.823-2.629  C47.622,18.178,47.696,19.31,47.771,20.457z M33.653,23.163c-1.883,0.694-3.662,1.5-5.283,2.436  c-0.948,0.547-2.616,1.61-4.273,3.131c-1.065-0.83-2.14-1.662-3.205-2.48c1.807-1.643,3.624-2.797,4.656-3.393  c1.897-1.096,3.992-2.031,6.21-2.833C32.385,21.055,33.021,22.107,33.653,23.163z M22.105,46.113  c2.058,2.601,4.895,4.519,7.576,5.885c-0.395,0.059-0.776,0.12-1.163,0.181c-2.68-1.215-4.958-2.623-6.989-4.325  c-0.819-0.687-1.547-1.398-2.203-2.128C20.244,45.851,21.174,45.979,22.105,46.113z M31.3,52.773c1.056,0.47,2.052,0.854,2.92,1.157  c2.91,1.015,6.094,1.733,9.413,2.146c-0.017,0.02-0.034,0.038-0.051,0.059c-4.052-0.445-7.937-1.29-11.463-2.519  c-0.642-0.224-1.256-0.457-1.856-0.695C30.601,52.871,30.955,52.823,31.3,52.773z M48.236,58.551c0-0.013,0-0.026,0-0.039  c0.125,0.004,0.25,0.004,0.375,0.007c0.002,0.034,0.005,0.066,0.007,0.1c-0.029,0-0.058-0.001-0.086-0.001  C48.431,58.598,48.334,58.574,48.236,58.551z M56.033,56.161c1.028-0.115,2.044-0.256,3.041-0.431  c0.04,0.025,0.082,0.051,0.122,0.076c-1.045,0.161-2.104,0.295-3.177,0.399C56.024,56.191,56.028,56.176,56.033,56.161z   M60.485,55.441c4.158-0.859,7.989-2.228,11.233-4.078c0.48,0.026,0.962,0.055,1.442,0.084c-3.668,1.884-7.898,3.283-12.479,4.12  C60.616,55.525,60.552,55.483,60.485,55.441z M73.21,50.449c1.877-1.253,4.564-3.41,6.255-6.334  c1.051-0.216,2.107-0.429,3.152-0.635c-2.343,3.595-6.014,6.044-7.775,7.078C74.302,50.52,73.758,50.483,73.21,50.449z M84.93,32.41  c-0.986-2.714-2.853-5.249-5.58-7.54c-0.271-0.227-0.548-0.442-0.824-0.658c1.012-0.916,2.003-1.809,2.955-2.662  c0.372,0.285,0.739,0.575,1.1,0.877c2.957,2.482,5.036,5.327,6.065,8.252C87.458,31.229,86.204,31.813,84.93,32.41z M77.712,23.602  c-2.593-1.882-5.529-3.361-9.274-4.67c-1.041-0.364-2.121-0.685-3.219-0.983c0.518-1.115,1.022-2.195,1.504-3.222  c1.304,0.348,2.585,0.727,3.817,1.158c4.083,1.428,7.292,3.034,10.118,5.063C79.737,21.772,78.742,22.669,77.712,23.602z   M64.24,17.682c-4.443-1.112-9.277-1.694-14.208-1.694c-0.521,0-1.033,0.031-1.55,0.044c-0.077-1.15-0.152-2.288-0.227-3.401  c0.586-0.015,1.175-0.025,1.766-0.025c5.457,0,10.805,0.636,15.723,1.855C65.261,15.49,64.758,16.568,64.24,17.682z M31.229,19.15  c-2.204,0.807-4.286,1.745-6.18,2.839c-1.099,0.634-3.04,1.872-4.96,3.642c-1.104-0.846-2.182-1.667-3.216-2.451  c2.074-1.896,4.167-3.228,5.351-3.912c2.17-1.253,4.552-2.337,7.092-3.251C29.927,17.015,30.568,18.065,31.229,19.15z   M17.846,45.528c0.856,1.074,1.866,2.107,3.041,3.092c1.759,1.474,3.693,2.731,5.893,3.836c-0.389,0.063-0.773,0.129-1.155,0.194  c-3.054-1.381-5.65-2.984-7.969-4.926c-0.984-0.824-1.852-1.681-2.628-2.56C15.923,45.278,16.867,45.399,17.846,45.528z   M28.374,53.213c1.074,0.477,2.206,0.926,3.416,1.348c3.403,1.186,7.129,2.024,11.017,2.496c-0.022,0.027-0.044,0.053-0.066,0.079  c-4.614-0.504-9.039-1.464-13.055-2.863c-0.82-0.286-1.6-0.586-2.362-0.894C27.668,53.322,28.023,53.268,28.374,53.213z   M44.004,57.181c0.182,0.019,0.363,0.037,0.545,0.054c0.014,0.027,0.022,0.056,0.038,0.083c-0.216-0.018-0.429-0.044-0.644-0.063  C43.963,57.23,43.984,57.205,44.004,57.181z M55.717,57.234c1.615-0.146,3.213-0.333,4.766-0.605  c0.057,0.037,0.116,0.074,0.173,0.111c-1.633,0.259-3.298,0.458-4.991,0.593C55.682,57.3,55.701,57.267,55.717,57.234z   M61.857,56.344c4.896-0.99,9.404-2.59,13.21-4.768c0.511,0.037,1.014,0.075,1.508,0.113c-4.233,2.215-9.164,3.839-14.488,4.81  C62.011,56.447,61.934,56.396,61.857,56.344z M76.532,50.684c2.174-1.426,5.421-3.974,7.424-7.466  c1.09-0.212,2.148-0.414,3.159-0.604c-2.674,4.183-6.944,7.023-8.958,8.202C77.632,50.771,77.088,50.727,76.532,50.684z   M84.548,42.085c1.161-2.499,1.627-5.424,0.694-8.718c1.271-0.595,2.521-1.177,3.708-1.726c1.027,3.743,0.323,7.047-1.162,9.83  C86.763,41.662,85.676,41.868,84.548,42.085z M93.278,28.564c-1.063,0.478-2.329,1.055-3.721,1.696  c-1.105-3.095-3.225-5.986-6.335-8.598c-0.323-0.271-0.654-0.53-0.986-0.788c1.061-0.947,2.056-1.83,2.955-2.623  c0.43,0.329,0.854,0.664,1.27,1.013C89.788,22.06,92.127,25.266,93.278,28.564z M84.365,17.648c-0.793,0.7-1.795,1.589-2.943,2.617  c-2.948-2.148-6.287-3.833-10.552-5.325c-1.201-0.42-2.448-0.79-3.716-1.132c0.546-1.162,1.052-2.231,1.502-3.18  c1.477,0.393,2.926,0.821,4.32,1.309C77.577,13.546,81.186,15.356,84.365,17.648z M67.676,10.361  c-0.452,0.954-0.956,2.02-1.501,3.18c-5.05-1.27-10.546-1.935-16.154-1.935c-0.613,0-1.224,0.01-1.832,0.026l-0.223-3.336  c0.679-0.018,1.36-0.029,2.044-0.029C56.143,8.267,62.152,8.985,67.676,10.361z M18.89,15.726c2.443-1.411,5.125-2.63,7.985-3.657  c0.569,0.916,1.211,1.952,1.905,3.079c-2.523,0.919-4.894,2.003-7.058,3.253c-1.251,0.723-3.472,2.139-5.66,4.165  c-1.166-0.88-2.245-1.689-3.216-2.412C15.186,18.005,17.554,16.498,18.89,15.726z M12.111,20.854  c0.968,0.72,2.052,1.532,3.221,2.415c-2.488,2.481-4.781,5.76-5.38,9.721c-1.43-0.548-2.697-1.027-3.746-1.418  C6.778,27.195,9.345,23.575,12.111,20.854z M6.109,32.603c1.058,0.396,2.318,0.874,3.727,1.414c-0.121,1.659,0.054,3.426,0.64,5.3  c0.494,1.578,1.257,3.1,2.265,4.561c-1.181-0.142-2.176-0.255-2.936-0.339c-1.378-1.801-2.395-3.69-3.01-5.656  C6.214,36.026,6.017,34.264,6.109,32.603z M10.71,44.646c0.81,0.093,1.775,0.207,2.855,0.338c0.97,1.218,2.114,2.391,3.447,3.507  c2.056,1.722,4.317,3.185,6.904,4.463c-0.4,0.073-0.804,0.146-1.197,0.221c-3.429-1.55-6.344-3.348-8.946-5.527  C12.622,46.683,11.608,45.679,10.71,44.646z M24.378,53.888c0.367-0.066,0.735-0.134,1.108-0.198c1.217,0.54,2.499,1.049,3.87,1.526  c3.901,1.359,8.177,2.319,12.638,2.85c-0.033,0.042-0.065,0.082-0.099,0.124c-5.177-0.563-10.143-1.64-14.648-3.209  C26.247,54.632,25.301,54.265,24.378,53.888z M43.081,58.306c0.032-0.04,0.065-0.083,0.097-0.122  c0.549,0.056,1.096,0.115,1.649,0.158c0.006,0.037,0.012,0.074,0.018,0.111C44.254,58.412,43.667,58.36,43.081,58.306z   M55.409,58.353c2.199-0.164,4.359-0.426,6.46-0.795c0.074,0.052,0.148,0.105,0.223,0.157c-2.188,0.352-4.428,0.606-6.709,0.759  C55.392,58.434,55.4,58.394,55.409,58.353z M81.486,51.122c-0.512-0.051-1.069-0.104-1.662-0.159  c2.459-1.587,6.286-4.524,8.615-8.596c1.172-0.217,2.256-0.413,3.188-0.578C88.627,46.563,83.754,49.798,81.486,51.122z"></path></svg>