<svg height='100px' width='100px'  fill="#000000" xmlns="http://www.w3.org/2000/svg" xmlns:xlink="http://www.w3.org/1999/xlink" version="1.1" x="0px" y="0px" viewBox="0 0 100 100" enable-background="new 0 0 100 100" xml:space="preserve"><path d="M94.64,71.885H5.36c-0.226,0-0.408,0.184-0.408,0.408v1.57c0,0.227,0.183,0.409,0.408,0.409H94.64  c0.226,0,0.408-0.183,0.408-0.409v-1.57C95.048,72.068,94.865,71.885,94.64,71.885z M94.64,67.452H5.36  c-0.226,0-0.408,0.183-0.408,0.408v1.57c0,0.226,0.183,0.408,0.408,0.408H94.64c0.226,0,0.408-0.183,0.408-0.408v-1.57  C95.048,67.635,94.865,67.452,94.64,67.452z M94.64,76.317H5.36c-0.226,0-0.408,0.183-0.408,0.409v1.57  c0,0.225,0.183,0.408,0.408,0.408H94.64c0.226,0,0.408-0.184,0.408-0.408v-1.57C95.048,76.5,94.865,76.317,94.64,76.317z   M94.64,80.751H5.36c-0.226,0-0.408,0.183-0.408,0.407v1.57c0,0.226,0.183,0.408,0.408,0.408H94.64c0.226,0,0.408-0.183,0.408-0.408  v-1.57C95.048,80.934,94.865,80.751,94.64,80.751z M5.36,65.197h43.813c0.002,0,0.003,0,0.005,0  c0.232-0.015,0.412-0.182,0.412-0.408c0-0.102-0.037-0.195-0.099-0.267l-9.562-16.56l9.242-16.009l10.07,17.441l-8.769,15.189  c-0.073,0.126-0.073,0.281,0,0.407c0.072,0.127,0.208,0.205,0.354,0.205H94.64c0.146,0,0.281-0.078,0.354-0.205  c0.072-0.126,0.072-0.281,0-0.407L73.087,26.641c-0.146-0.252-0.562-0.252-0.707,0L60.953,46.433L49.526,26.641  c-0.146-0.252-0.562-0.252-0.708,0L38.22,45l-10.6-18.359c-0.146-0.252-0.562-0.252-0.708,0L5.006,64.585  c-0.072,0.126-0.072,0.281,0,0.407C5.079,65.119,5.214,65.197,5.36,65.197z M72.733,31.954l17.481,30.278h-20.14l-7.411-12.837  L72.733,31.954z M66.653,62.232H55.251l5.702-9.874L66.653,62.232z M44.748,62.232H31.69l6.529-11.306L44.748,62.232z   M27.267,31.954l9.242,16.009l-8.239,14.27H9.784L27.267,31.954z"></path></svg>